<?xml version="1.0" standalone="no"?><!DOCTYPE svg PUBLIC "-//W3C//DTD SVG 1.1//EN" "http://www.w3.org/Graphics/SVG/1.1/DTD/svg11.dtd"><svg t="1636694390053" class="icon" viewBox="0 0 1024 1024" version="1.1" xmlns="http://www.w3.org/2000/svg" p-id="5309" width="16" height="16" xmlns:xlink="http://www.w3.org/1999/xlink"><defs><style type="text/css"></style></defs><path d="M566.32954 512l446-419.3c15-14.1 15.7-37.6 1.6-52.6-14-15-37.7-15.7-52.6-1.6L512.02954 461 62.62954 38.6C47.72954 24.5 24.12954 25.2 10.02954 40.2c-14 15-13.2 38.5 1.7 52.5l446 419.3-446 419.3c-15 14.1-15.7 37.6-1.6 52.6 7.3 7.8 17.2 11.7 27.1 11.7 9.2 0 18.3-3.3 25.5-10.1L512.02954 563l449.4 422.4c7.2 6.8 16.3 10.1 25.5 10.1 9.9 0 19.8-3.9 27.1-11.7 14.1-15 13.3-38.5-1.6-52.6L566.32954 512z" p-id="5310" fill="#8a8a8a"></path></svg>