<?xml version="1.0" standalone="no"?><!DOCTYPE svg PUBLIC "-//W3C//DTD SVG 1.1//EN" "http://www.w3.org/Graphics/SVG/1.1/DTD/svg11.dtd"><svg t="1636639331850" class="icon" viewBox="0 0 1024 1024" version="1.1" xmlns="http://www.w3.org/2000/svg" p-id="3711" xmlns:xlink="http://www.w3.org/1999/xlink" width="16" height="16"><defs><style type="text/css"></style></defs><path d="M512 85.333c-235.627 0-426.667 191.019-426.667 426.688 0 235.627 191.04 426.645 426.667 426.645s426.667-191.019 426.667-426.645c0-235.669-191.04-426.688-426.667-426.688zM512 789.333c-35.349 0-64-28.672-64-64.043 0-35.285 28.651-63.957 64-63.957s64 28.672 64 63.957c0 35.371-28.651 64.043-64 64.043zM554.667 597.333l-85.333 0-21.333-384 128 0-21.333 384z" p-id="3712" fill="#d81e06"></path></svg>