<?xml version="1.0" standalone="no"?><!DOCTYPE svg PUBLIC "-//W3C//DTD SVG 1.1//EN" "http://www.w3.org/Graphics/SVG/1.1/DTD/svg11.dtd"><svg t="1645279360684" class="icon" viewBox="0 0 1024 1024" version="1.1" xmlns="http://www.w3.org/2000/svg" p-id="1357" width="12" height="12" xmlns:xlink="http://www.w3.org/1999/xlink"><defs><style type="text/css"></style></defs><path d="M903.889 316.017c0 8.805-2.828 17.65-8.685 25.14l-279.696 356.91c-25.261 32.232-63.271 50.759-104.268 50.759-41.037 0-79.047-18.527-104.308-50.799l-278.141-354.877c-13.905-17.811-10.758-43.388 6.933-57.294 17.729-13.905 43.388-10.797 57.294 6.933l278.141 354.917c9.722 12.43 24.305 19.523 40.082 19.523 15.738 0 30.321-7.092 40.043-19.483l279.696-356.95c13.905-17.729 39.523-20.838 57.294-6.933 10.239 8.049 15.618 20.041 15.618 32.153z" p-id="1358" fill="#8a8a8a"></path></svg>