<svg width="14" height="7" viewBox="0 0 14 7" fill="none" xmlns="http://www.w3.org/2000/svg">
  <path d="M13.4313 4.17504C13.4972 4.28951 13.5152 4.4254 13.4812 4.55304C13.4472 4.68068 13.3642 4.7897 13.2501 4.85629C13.1747 4.90195 13.0882 4.92575 13.0001 4.92504C12.9116 4.92583 12.8244 4.90311 12.7475 4.85918C12.6707 4.81526 12.6069 4.75171 12.5626 4.67504L11.4126 2.68754C10.7378 3.14144 9.99523 3.48531 9.21259 3.70629L9.57509 5.76254C9.597 5.89333 9.56671 6.02749 9.49074 6.13618C9.41478 6.24487 9.29919 6.31942 9.16884 6.34379H9.08134C8.96366 6.34414 8.84962 6.30296 8.75931 6.2275C8.66899 6.15205 8.60819 6.04716 8.58759 5.93129L8.23134 3.90629C7.82371 3.96707 7.41223 3.9984 7.00009 4.00004C6.58604 4.00023 6.1725 3.97099 5.76259 3.91254L5.40634 5.93754C5.38575 6.05341 5.32494 6.1583 5.23463 6.23375C5.14431 6.30921 5.03028 6.35039 4.91259 6.35004H4.82509C4.69474 6.32567 4.57916 6.25112 4.50319 6.14243C4.42723 6.03374 4.39694 5.89958 4.41884 5.76879L4.78759 3.70629C4.00248 3.48673 3.25762 3.14279 2.58134 2.68754L1.42509 4.68754C1.38043 4.76247 1.31738 4.82475 1.24191 4.8685C1.16645 4.91225 1.08106 4.93601 0.993845 4.93754C0.906226 4.93723 0.820226 4.9139 0.744462 4.86989C0.668697 4.82588 0.605828 4.76274 0.562152 4.68678C0.518477 4.61082 0.495528 4.52472 0.495606 4.4371C0.495683 4.34948 0.518784 4.26342 0.562595 4.18754L1.78134 2.07504C1.35546 1.70979 0.964213 1.306 0.612595 0.868791C0.571041 0.818126 0.539988 0.759696 0.521245 0.696908C0.502502 0.63412 0.496444 0.568229 0.503425 0.503076C0.510406 0.437923 0.530285 0.374811 0.561905 0.317419C0.593524 0.260027 0.636251 0.209502 0.687595 0.16879C0.73787 0.126886 0.795976 0.0953961 0.858531 0.0761505C0.921087 0.056905 0.986845 0.0502883 1.05198 0.0566856C1.11712 0.0630829 1.18033 0.0823662 1.23795 0.113414C1.29556 0.144463 1.34643 0.186656 1.38759 0.237541C1.77882 0.725295 2.22559 1.16577 2.71884 1.55004H2.72509C3.94556 2.50208 5.45227 3.01313 7.00009 3.00004C8.83134 3.00004 10.2376 2.35629 11.2688 1.55629H11.2813C11.7746 1.17202 12.2214 0.731545 12.6126 0.243791C12.6533 0.192447 12.7038 0.14972 12.7612 0.1181C12.8186 0.0864809 12.8817 0.0666017 12.9469 0.059621C13.012 0.0526403 13.0779 0.058698 13.1407 0.0774409C13.2035 0.0961838 13.2619 0.127237 13.3126 0.16879C13.3639 0.209502 13.4067 0.260027 13.4383 0.317419C13.4699 0.374811 13.4898 0.437923 13.4968 0.503076C13.5037 0.568229 13.4977 0.63412 13.4789 0.696908C13.4602 0.759696 13.4291 0.818126 13.3876 0.868791C13.036 1.306 12.6447 1.70979 12.2188 2.07504L13.4313 4.17504Z" fill="#585858"/>
  </svg>
  