<svg width="14" height="10" viewBox="0 0 14 10" fill="none" xmlns="http://www.w3.org/2000/svg">
  <path
    d="M13.5242 4.825C13.5078 4.78125 13.0429 3.75313 12.0148 2.71953C10.6422 1.35234 8.90856 0.625 6.99997 0.625C5.09138 0.625 3.35778 1.35234 1.98513 2.71953C0.957001 3.75313 0.492157 4.78125 0.475751 4.825C0.451334 4.88011 0.438721 4.93972 0.438721 5C0.438721 5.06028 0.451334 5.11989 0.475751 5.175C0.492157 5.21875 0.957001 6.24687 1.98513 7.28047C3.35778 8.64766 5.09138 9.375 6.99997 9.375C8.90856 9.375 10.6422 8.64766 12.0148 7.28047C13.0429 6.24687 13.5078 5.21875 13.5242 5.175C13.5486 5.11989 13.5612 5.06028 13.5612 5C13.5612 4.93972 13.5486 4.88011 13.5242 4.825ZM6.99997 8.5C5.31559 8.5 3.8445 7.8875 2.63044 6.67891C2.1287 6.18477 1.70298 5.61898 1.36716 5C1.70252 4.37909 2.12826 3.81143 2.63044 3.31562C3.8445 2.1125 5.31559 1.5 6.99997 1.5C8.68434 1.5 10.1554 2.1125 11.3695 3.31562C11.8717 3.81143 12.2974 4.37909 12.6328 5C12.239 5.73828 10.5218 8.5 6.99997 8.5ZM6.99997 2.375C6.48079 2.375 5.97328 2.52895 5.5416 2.81739C5.10992 3.10583 4.77347 3.5158 4.57479 3.99546C4.37611 4.47511 4.32412 5.00291 4.42541 5.51211C4.52669 6.02131 4.7767 6.48904 5.14381 6.85616C5.51093 7.22327 5.97866 7.47328 6.48786 7.57456C6.99706 7.67585 7.52486 7.62386 8.00451 7.42518C8.48417 7.2265 8.89414 6.89005 9.18258 6.45837C9.47102 6.02669 9.62497 5.51918 9.62497 5C9.62497 4.30381 9.34841 3.63613 8.85612 3.14384C8.36384 2.65156 7.69616 2.375 6.99997 2.375ZM6.99997 6.75C6.65385 6.75 6.31551 6.64736 6.02772 6.45507C5.73994 6.26278 5.51563 5.98947 5.38318 5.6697C5.25073 5.34993 5.21607 4.99806 5.2836 4.65859C5.35112 4.31913 5.51779 4.0073 5.76253 3.76256C6.00727 3.51782 6.31909 3.35115 6.65856 3.28363C6.99803 3.2161 7.3499 3.25076 7.66967 3.38321C7.98944 3.51566 8.26275 3.73997 8.45504 4.02775C8.64733 4.31554 8.74997 4.65388 8.74997 5C8.74853 5.46369 8.56369 5.90797 8.23581 6.23584C7.90794 6.56372 7.46365 6.74856 6.99997 6.75Z"
    fill="#585858" />
</svg>
  