<svg width="14" height="14" viewBox="0 0 14 14" fill="none" xmlns="http://www.w3.org/2000/svg">
  <rect opacity="0.01" width="14" height="14" fill="black" />
  <path fill-rule="evenodd" clip-rule="evenodd"
    d="M0.875 7C0.875 3.61758 3.61758 0.875 7 0.875C10.3824 0.875 13.125 3.61758 13.125 7C13.125 10.3824 10.3824 13.125 7 13.125C3.61758 13.125 0.875 10.3824 0.875 7ZM6.76621 8.99199L9.64551 4.9998C9.69746 4.92734 9.64551 4.82617 9.55664 4.82617H8.91543C8.77461 4.82617 8.64336 4.89453 8.56133 5.00801L6.41211 7.98848L5.43867 6.6377C5.35664 6.52285 5.22402 6.45586 5.08457 6.45586H4.44336C4.35449 6.45586 4.30254 6.55703 4.35449 6.62949L6.05938 8.99199C6.23301 9.23398 6.59258 9.23398 6.76621 8.99199Z"
    fill="#BCBCBC" />
</svg>
  